HIERARCHY
ROOT root
{
	OFFSET 0.000000 0.000000 0.000000
	CHANNELS 6 Xposition Yposition Zposition Zrotation Yrotation Xrotation
	JOINT lhip
	{
		OFFSET 0.058581 -0.082280 -0.017664
		CHANNELS 3 Zrotation Yrotation Xrotation
		JOINT lknee
		{
			OFFSET 0.043451 -0.386469 0.008037
			CHANNELS 3 Zrotation Yrotation Xrotation
			JOINT lankle
			{
				OFFSET -0.014790 -0.426874 -0.037428
				CHANNELS 3 Zrotation Yrotation Xrotation
				JOINT ltoe
				{
					OFFSET 0.041054 -0.060286 0.122042
					CHANNELS 3 Zrotation Yrotation Xrotation
					End Site
					{
						OFFSET 0.000000 0.000000 0.000000
					}
				}
			}
		}
	}
	JOINT rhip
	{
		OFFSET -0.060310 -0.090513 -0.013543
		CHANNELS 3 Zrotation Yrotation Xrotation
		JOINT rknee
		{
			OFFSET -0.043257 -0.383688 -0.004843
			CHANNELS 3 Zrotation Yrotation Xrotation
			JOINT rankle
			{
				OFFSET 0.019056 -0.420046 -0.034562
				CHANNELS 3 Zrotation Yrotation Xrotation
				JOINT rtoe
				{
					OFFSET -0.034840 -0.062106 0.130323
					CHANNELS 3 Zrotation Yrotation Xrotation
					End Site
					{
						OFFSET 0.000000 0.000000 0.000000
					}
				}
			}
		}
	}
	JOINT lowerback
	{
		OFFSET 0.004439 0.124404 -0.038385
		CHANNELS 3 Zrotation Yrotation Xrotation
		JOINT upperback
		{
			OFFSET 0.004488 0.137956 0.026820
			CHANNELS 3 Zrotation Yrotation Xrotation
			JOINT chest
			{
				OFFSET -0.002265 0.056032 0.002855
				CHANNELS 3 Zrotation Yrotation Xrotation
				JOINT lowerneck
				{
					OFFSET -0.013390 0.211636 -0.033468
					CHANNELS 3 Zrotation Yrotation Xrotation
					JOINT upperneck
					{
						OFFSET 0.010113 0.088937 0.050410
						CHANNELS 3 Zrotation Yrotation Xrotation
						End Site
						{
							OFFSET 0.000000 0.000000 0.000000
						}
					}
				}
				JOINT lclavicle
				{
					OFFSET 0.071702 0.114000 -0.018898
					CHANNELS 3 Zrotation Yrotation Xrotation
					JOINT lshoulder
					{
						OFFSET 0.122921 0.045205 -0.019046
						CHANNELS 3 Zrotation Yrotation Xrotation
						JOINT lelbow
						{
							OFFSET 0.255332 -0.015649 -0.022946
							CHANNELS 3 Zrotation Yrotation Xrotation
							JOINT lwrist
							{
								OFFSET 0.265709 0.012698 -0.007375
								CHANNELS 3 Zrotation Yrotation Xrotation
								End Site
								{
									OFFSET 0.000000 0.000000 0.000000
								}
							}
						}
					}
				}
				JOINT rclavicle
				{
					OFFSET -0.082954 0.112472 -0.023707
					CHANNELS 3 Zrotation Yrotation Xrotation
					JOINT rshoulder
					{
						OFFSET -0.113228 0.046853 -0.008472
						CHANNELS 3 Zrotation Yrotation Xrotation
						JOINT relbow
						{
							OFFSET -0.260127 -0.014369 -0.031269
							CHANNELS 3 Zrotation Yrotation Xrotation
							JOINT rwrist
							{
								OFFSET -0.269108 0.006794 -0.006027
								CHANNELS 3 Zrotation Yrotation Xrotation
								End Site
								{
									OFFSET 0.000000 0.000000 0.000000
								}
							}
						}
					}
				}
			}
		}
	}
}
MOTION
Frames: 10
Frame Time: 0.033333
0.373314 1.320276 0.946114 81.297293 5.996188 83.475195 10.357913 4.219567 -22.844375 -3.470776 14.657825 21.174449 10.142442 18.996103 -14.141843 0.000000 -0.000000 0.000000 -4.601626 -1.051076 -6.971829 14.141702 6.618535 60.863227 10.977710 9.905389 4.673373 0.000000 -0.000000 0.000000 -0.972034 2.177099 16.082488 3.342133 0.186068 -2.465655 1.611311 -0.320162 3.749325 6.585400 4.294981 1.311448 -2.574327 6.728948 12.639072 -21.254078 14.399596 1.012701 -56.857274 10.960305 8.188000 -17.899984 -56.366298 40.333494 5.154913 -9.722784 -20.325771 17.319423 -0.945002 -3.333933 37.398692 22.419742 6.440083 -16.655654 47.971104 -8.732694 -41.242135 18.061429 1.131198 
0.397277 1.329430 0.950556 81.083741 5.773047 82.935800 9.124159 1.556662 -22.269637 -2.917721 11.713396 23.731018 11.329535 19.576082 -15.720202 0.000000 -0.000000 0.000000 -4.009041 1.836081 -16.507554 14.519114 7.654370 70.416428 14.344055 8.343093 18.371275 0.000000 -0.000000 0.000000 -1.594044 1.710187 19.722509 3.346374 1.480329 -3.163398 1.470964 -0.061410 4.738939 6.063489 6.527888 0.144328 -3.088364 5.483904 10.854888 -20.307500 15.227611 0.187531 -53.411179 10.272814 6.971567 -27.107702 -65.894827 51.808772 8.774967 -10.475223 -16.527162 18.691829 -1.400411 -2.773245 42.010090 22.183673 8.659226 -30.600086 52.085519 -21.378015 -57.360079 18.357388 3.458464 
0.419974 1.337339 0.953083 82.524004 5.173399 82.847401 6.735337 -0.491624 -21.755128 -2.360178 8.598374 24.993036 11.966497 20.303586 -16.560663 0.000000 -0.000000 0.000000 -3.316209 6.174008 -25.021549 12.933700 8.535839 75.544999 11.901406 3.601774 19.926639 0.000000 -0.000000 0.000000 -2.710034 0.594520 22.605031 3.232370 2.631522 -3.670401 1.249637 -0.215397 5.954691 5.067027 6.941053 -1.261039 -3.072080 5.945291 10.091281 -19.583163 15.563450 -0.624183 -48.999478 7.970354 6.391762 -26.778408 -76.933934 52.547545 17.395558 -12.848722 -10.376510 19.974305 -1.823018 -3.938028 45.283242 19.727111 11.828496 -37.518287 56.815266 -28.888319 -46.951104 15.451381 -0.623704 
0.443384 1.344147 0.955673 86.790453 4.845397 82.872614 4.475914 -2.458395 -21.247071 -2.223275 5.822562 26.130673 10.990956 20.635130 -17.242086 0.000000 -0.000000 0.000000 -3.127747 9.843240 -31.170560 9.456009 9.274209 74.243221 6.485545 -2.549609 16.948896 0.000000 -0.000000 0.000000 -3.200571 -1.541786 24.862439 3.267393 2.756133 -4.388785 1.063872 -0.730931 7.443800 3.058215 6.085846 -2.276478 -2.840981 7.245428 10.514192 -19.538310 15.380553 -1.887992 -44.641701 3.161464 4.683264 39.779541 -83.047851 -15.854490 28.159944 -14.807824 -7.738902 21.432053 -2.241255 -5.318627 47.195729 17.157319 15.344708 -36.836141 60.287343 -28.839767 -33.133920 15.084034 -4.969983 
0.467755 1.348107 0.958340 92.807123 4.541825 82.728301 2.831849 -4.053951 -20.241929 -3.153178 3.087783 27.128868 8.852738 19.821215 -18.162764 0.000000 -0.000000 0.000000 -3.153654 12.462926 -34.865365 5.908863 10.819004 67.595422 2.640233 -6.571066 13.080080 0.000000 -0.000000 0.000000 -3.187387 -3.020572 26.621574 3.199847 2.271575 -4.944120 1.004421 -1.138669 8.279772 1.288401 5.268727 -2.298999 -1.832122 7.192118 10.732964 -19.015463 13.002711 -3.366543 -39.800660 -4.699754 1.789974 78.149845 -73.312706 -60.096455 34.971588 -12.785334 -10.684888 22.166235 -2.124457 -5.275520 49.368939 14.141060 18.614642 -34.038887 60.976480 -24.428381 -26.028240 16.045815 -5.425232 
0.493552 1.349517 0.960031 99.824314 4.298850 82.431503 1.177011 -5.502567 -18.633591 -4.494749 -0.498393 27.688874 7.929468 18.892697 -19.100014 0.000000 -0.000000 0.000000 -2.920776 14.493913 -36.792743 3.900072 13.297849 58.773132 1.258394 -7.021811 9.477413 0.000000 -0.000000 0.000000 -2.927141 -3.417566 27.991178 3.175841 1.592164 -5.465383 1.223367 -1.341459 8.343689 0.102407 5.007871 -1.673766 -0.157603 5.533712 10.308283 -18.086088 8.026111 -4.874557 -33.692229 -14.028854 -1.362599 78.486677 -63.100622 -69.939071 34.555425 -8.061691 -17.035402 22.919980 -1.110808 -4.052327 51.001718 10.507546 21.176257 -32.127790 59.586733 -20.379284 -24.650420 15.865573 -1.756068 
0.521496 1.349781 0.961149 107.876061 4.409513 81.646842 -0.443341 -7.386840 -16.468972 -5.453948 -4.760837 28.957682 7.296921 17.800830 -20.484406 0.000000 -0.000000 0.000000 -1.930659 15.937800 -37.984670 3.167682 15.211458 52.624097 1.874855 -4.147198 7.079406 0.000000 -0.000000 0.000000 -2.649047 -3.481607 29.270095 3.686420 0.610093 -5.430435 1.743260 -1.547645 7.624288 -0.874932 5.617338 -1.072245 1.265132 2.851251 9.530484 -15.847361 2.525984 -5.831190 -29.741873 -21.632723 -3.570279 75.114116 -56.577156 -74.956918 23.637856 -5.665399 -27.847166 23.044770 0.305690 -2.561064 53.223871 7.361239 22.543553 -30.671033 57.312154 -18.617979 -22.252998 13.338925 -2.872279 
0.551861 1.350464 0.962557 116.749801 4.394751 80.449423 -2.020467 -9.885483 -13.769736 -6.760301 -9.047368 30.892809 7.160247 16.694140 -21.891261 0.000000 -0.000000 0.000000 -0.978615 16.286226 -40.126103 3.168701 13.133617 52.444950 2.859527 -2.336012 6.250035 0.000000 -0.000000 0.000000 -2.934402 -3.454746 29.857095 4.842121 -0.196635 -5.056009 2.030931 -1.623597 7.105487 -1.193904 6.480792 -0.583767 1.924811 -1.066033 8.900778 -12.575661 -1.437647 -5.769682 -29.711205 -27.562139 -1.718522 69.983564 -55.895892 -73.849602 13.404080 -8.211918 -41.461942 22.861927 0.960638 -1.533706 55.937176 5.408952 23.658804 -29.891433 53.947751 -16.338378 -18.053576 10.789548 -5.838543 
0.584112 1.353469 0.964516 126.572504 3.947128 78.848727 -3.688961 -11.206703 -10.106532 -9.271638 -13.856891 32.318173 8.191048 15.307076 -23.135144 0.000000 -0.000000 0.000000 -0.896204 15.290612 -42.695361 4.293597 7.618904 56.878377 4.175217 -2.613892 7.759747 0.000000 -0.000000 0.000000 -3.635562 -3.502593 29.714228 5.870376 -0.725121 -4.742653 1.731854 -1.884842 6.914798 -0.281346 6.475896 0.289083 2.297867 -5.706587 9.131542 -10.064810 -4.612957 -5.538908 -31.397977 -31.811429 3.788835 61.430886 -61.941976 -61.758733 7.910123 -10.940444 -44.630339 22.877576 1.295210 -1.005884 58.308992 3.672748 24.372462 -27.804665 50.347441 -11.990406 -16.636242 9.309271 -7.102171 
0.616752 1.360129 0.967724 137.258681 3.582745 76.926562 -4.608488 -10.012095 -5.958662 -12.107336 -18.379173 33.356211 9.106429 12.004033 -24.486164 0.000000 -0.000000 0.000000 -1.217436 12.842774 -44.375980 5.841946 1.873919 62.690566 7.170474 -0.028594 9.583187 0.000000 -0.000000 0.000000 -4.053570 -3.869837 29.020296 6.455123 -1.463074 -3.750511 1.188883 -2.500252 6.119482 1.412444 6.098630 1.819071 2.284926 -10.735718 9.880863 -8.787921 -7.843800 -5.595979 -35.956563 -33.917619 9.734051 43.788070 -69.430138 -32.092646 -6.021411 -13.296852 -31.677839 22.460687 1.476831 -0.191127 60.217873 1.787806 22.542712 -23.196861 48.786769 -4.214503 -14.163242 8.265854 -9.011064 
